<svg xmlns="http://www.w3.org/2000/svg" width="1440" height="980" viewBox="0 0 1440 980" fill="none">
  <defs>
    <linearGradient id="primary" x1="0" y1="0" x2="1" y2="1"><stop stop-color="#2f6bff"/><stop offset="1" stop-color="#063bd8"/></linearGradient>
    <filter id="shadow" x="-20%" y="-30%" width="140%" height="170%"><feDropShadow dx="0" dy="16" stdDeviation="16" flood-color="#0B5CFF" flood-opacity="0.18"/></filter>
    <style>.t{font-family:Inter,Arial,"Microsoft YaHei",sans-serif;font-weight:850;letter-spacing:-.02em}.dark{fill:#0b1736}.blue{stroke:#0b5cff}.white{stroke:#fff}.btn{rx:24;filter:url(#shadow)}.outline{stroke:#0b5cff;stroke-width:3;fill:#fff}.ghost{stroke:#d7e0ee;stroke-width:2;fill:#fff}</style>
  </defs>
  <rect width="1440" height="980" fill="none"/>
  <g transform="translate(80 80)"><rect class="btn" width="560" height="128" rx="24" fill="url(#primary)"/><text class="t" x="232" y="79" font-size="46" fill="#fff" text-anchor="middle">Start Free</text><path d="M420 64h72m-28-32 32 32-32 32" class="white" stroke-width="8" stroke-linecap="round" stroke-linejoin="round"/></g>
  <g transform="translate(760 80)"><rect class="outline" width="600" height="128" rx="24"/><text class="t" x="292" y="79" font-size="42" fill="#0b5cff" text-anchor="middle">Watch Demo</text><circle cx="486" cy="64" r="28" class="blue" stroke-width="4"/><path d="M480 49v30l25-15-25-15Z" fill="#0b5cff"/></g>
  <g transform="translate(80 250)"><rect class="ghost" width="560" height="116" rx="22"/><path d="M104 69v-34m0 0L84 55m20-20 20 20M68 78a35 35 0 0 1 6-69 44 44 0 0 1 84 17 29 29 0 0 1 2 57" class="blue" stroke-width="6" stroke-linecap="round" stroke-linejoin="round"/><text class="t dark" x="318" y="74" font-size="40" text-anchor="middle">Upload Product</text></g>
  <g transform="translate(720 250)"><rect class="btn" width="640" height="116" rx="22" fill="url(#primary)"/><path d="M86 34l10 25 25 10-25 10-10 25-10-25-25-10 25-10 10-25Zm58-8 5 13 13 5-13 5-5 13-5-13-13-5 13-5 5-13Z" fill="#fff"/><text class="t" x="380" y="74" font-size="40" fill="#fff" text-anchor="middle">Generate Main Image</text></g>
  <g transform="translate(80 430)"><rect class="ghost" width="405" height="104" rx="20"/><rect x="52" y="36" width="42" height="42" rx="7" class="blue" stroke-width="5" stroke-dasharray="9 8"/><text class="t dark" x="248" y="65" font-size="30" text-anchor="middle">Remove Background</text></g>
  <g transform="translate(520 430)"><rect class="ghost" width="405" height="104" rx="20"/><circle cx="74" cy="52" r="24" class="blue" stroke-width="5"/><circle cx="74" cy="52" r="7" fill="#0b5cff"/><path d="M74 17v20M74 67v20M39 52h20M89 52h20" class="blue" stroke-width="5" stroke-linecap="round"/><text class="t dark" x="250" y="65" font-size="30" text-anchor="middle">Smart Centering</text></g>
  <g transform="translate(960 430)"><rect class="ghost" width="405" height="104" rx="20"/><path d="M68 25 96 38v30c0 25-17 39-28 44-11-5-28-19-28-44V38l28-13Z" class="blue" stroke-width="5" stroke-linejoin="round"/><path d="m56 62 9 9 20-23" class="blue" stroke-width="5" stroke-linecap="round" stroke-linejoin="round"/><text class="t dark" x="246" y="65" font-size="30" text-anchor="middle">Check Compliance</text></g>
  <g transform="translate(80 590)"><rect class="ghost" width="405" height="104" rx="20"/><path d="M73 25v43m0 0L52 48m21 20 21-20M42 78v20h62V78" class="blue" stroke-width="6" stroke-linecap="round" stroke-linejoin="round"/><text class="t dark" x="230" y="65" font-size="32" text-anchor="middle">Export Sizes</text></g>
  <g transform="translate(520 590)"><rect class="ghost" width="405" height="104" rx="20"/><path d="M46 34h20v20H46V34Zm36 0h20v20H82V34ZM46 70h20v20H46V70Zm36 0h20v20H82V70Z" class="blue" stroke-width="5"/><text class="t dark" x="248" y="65" font-size="32" text-anchor="middle">Open Dashboard</text></g>
  <g transform="translate(960 590)"><rect class="ghost" width="405" height="104" rx="20"/><text class="t" x="215" y="65" font-size="32" fill="#0b5cff" text-anchor="middle">Learn More</text><path d="m300 35 22 22-22 22" class="blue" stroke-width="6" stroke-linecap="round" stroke-linejoin="round"/></g>
  <g transform="translate(80 750)"><rect width="560" height="112" rx="22" fill="#f0f5ff" stroke="#b9c9ea" stroke-width="2"/><path d="M190 56a27 27 0 1 1 0-1" stroke="#8fa4ca" stroke-width="7" stroke-linecap="round" stroke-dasharray="1 15"/><text class="t" x="352" y="69" font-size="36" fill="#8fa4ca" text-anchor="middle">Generating...</text></g>
  <g transform="translate(760 750)"><rect class="ghost" width="116" height="112" rx="22"/><path d="M58 30v52M32 56h52" class="blue" stroke-width="6" stroke-linecap="round"/></g>
</svg>
